<svg width="90" height="90" viewBox="0 0 90 90" fill="none" xmlns="http://www.w3.org/2000/svg">
<g filter="url(#filter0_d_147_4622)">
<circle cx="45" cy="41" r="38" fill="url(#paint0_linear_147_4622)"/>
</g>
<g filter="url(#filter1_i_147_4622)">
<circle cx="45" cy="41" r="24" fill="url(#paint1_linear_147_4622)"/>
</g>
<path d="M55.2875 32.0422L45.2875 29.0422C45.1382 28.9974 44.9805 28.9881 44.827 29.0151C44.6734 29.0421 44.5283 29.1046 44.4032 29.1976C44.2782 29.2906 44.1766 29.4116 44.1065 29.5509C44.0365 29.6901 44 29.8438 44 29.9997V43.5322C42.9759 42.6162 41.6684 42.0795 40.2961 42.0117C38.9238 41.9439 37.5697 42.3491 36.4603 43.1597C35.3509 43.9703 34.5533 45.1371 34.2008 46.4651C33.8483 47.7931 33.9623 49.2019 34.5237 50.456C35.0851 51.71 36.06 52.7334 37.2853 53.3551C38.5106 53.9768 39.9122 54.159 41.2557 53.8715C42.5993 53.5839 43.8035 52.8439 44.667 51.7752C45.5305 50.7065 46.0011 49.3737 46 47.9997V37.3435L54.7125 39.9572C54.8618 40.002 55.0195 40.0113 55.173 39.9844C55.3266 39.9574 55.4717 39.8949 55.5968 39.8019C55.7218 39.7088 55.8234 39.5879 55.8935 39.4486C55.9635 39.3093 56 39.1556 56 38.9997V32.9997C55.9999 32.7847 55.9306 32.5755 55.8023 32.403C55.6739 32.2305 55.4934 32.104 55.2875 32.0422Z" fill="url(#paint2_linear_147_4622)"/>
<g filter="url(#filter2_d_147_4622)">
<circle cx="45" cy="41" r="39.5" stroke="url(#paint3_linear_147_4622)" strokeWidth="3" shapeRendering="crispEdges"/>
</g>
<defs>
<filter id="filter0_d_147_4622" x="3" y="3" width="84" height="84" filterUnits="userSpaceOnUse" colorInterpolationFilters="sRGB">
<feFlood floodOpacity="0" result="BackgroundImageFix"/>
<feColorMatrix in="SourceAlpha" type="matrix" values="0 0 0 0 0 0 0 0 0 0 0 0 0 0 0 0 0 0 127 0" result="hardAlpha"/>
<feOffset dy="4"/>
<feGaussianBlur stdDeviation="2"/>
<feComposite in2="hardAlpha" operator="out"/>
<feColorMatrix type="matrix" values="0 0 0 0 0 0 0 0 0 0 0 0 0 0 0 0 0 0 0.25 0"/>
<feBlend mode="normal" in2="BackgroundImageFix" result="effect1_dropShadow_147_4622"/>
<feBlend mode="normal" in="SourceGraphic" in2="effect1_dropShadow_147_4622" result="shape"/>
</filter>
<filter id="filter1_i_147_4622" x="21" y="17" width="48" height="52" filterUnits="userSpaceOnUse" colorInterpolationFilters="sRGB">
<feFlood floodOpacity="0" result="BackgroundImageFix"/>
<feBlend mode="normal" in="SourceGraphic" in2="BackgroundImageFix" result="shape"/>
<feColorMatrix in="SourceAlpha" type="matrix" values="0 0 0 0 0 0 0 0 0 0 0 0 0 0 0 0 0 0 127 0" result="hardAlpha"/>
<feOffset dy="4"/>
<feGaussianBlur stdDeviation="2"/>
<feComposite in2="hardAlpha" operator="arithmetic" k2="-1" k3="1"/>
<feColorMatrix type="matrix" values="0 0 0 0 0 0 0 0 0 0 0 0 0 0 0 0 0 0 0.25 0"/>
<feBlend mode="normal" in2="shape" result="effect1_innerShadow_147_4622"/>
</filter>
<filter id="filter2_d_147_4622" x="0" y="0" width="90" height="90" filterUnits="userSpaceOnUse" colorInterpolationFilters="sRGB">
<feFlood floodOpacity="0" result="BackgroundImageFix"/>
<feColorMatrix in="SourceAlpha" type="matrix" values="0 0 0 0 0 0 0 0 0 0 0 0 0 0 0 0 0 0 127 0" result="hardAlpha"/>
<feOffset dy="4"/>
<feGaussianBlur stdDeviation="2"/>
<feComposite in2="hardAlpha" operator="out"/>
<feColorMatrix type="matrix" values="0 0 0 0 0 0 0 0 0 0 0 0 0 0 0 0 0 0 0.25 0"/>
<feBlend mode="normal" in2="BackgroundImageFix" result="effect1_dropShadow_147_4622"/>
<feBlend mode="normal" in="SourceGraphic" in2="effect1_dropShadow_147_4622" result="shape"/>
</filter>
<linearGradient id="paint0_linear_147_4622" x1="45" y1="3" x2="45" y2="79" gradientUnits="userSpaceOnUse">
<stop stopColor="#FFFA83"/>
<stop offset="1" stopColor="#DD573E"/>
</linearGradient>
<linearGradient id="paint1_linear_147_4622" x1="45" y1="17" x2="45" y2="65" gradientUnits="userSpaceOnUse">
<stop stopColor="#1594CC"/>
<stop offset="0.500277" stopColor="#17AFD6"/>
<stop offset="0.993492" stopColor="#16CAE3"/>
</linearGradient>
<linearGradient id="paint2_linear_147_4622" x1="45" y1="29" x2="45" y2="54.0044" gradientUnits="userSpaceOnUse">
<stop stopColor="#E2E2E2"/>
<stop offset="1" stopColor="#FFEFBA"/>
</linearGradient>
<linearGradient id="paint3_linear_147_4622" x1="45" y1="0" x2="45" y2="82" gradientUnits="userSpaceOnUse">
<stop stopColor="#BDBEBB"/>
<stop offset="0.545" stopColor="#EFEBD4"/>
<stop offset="1" stopColor="#CF997E"/>
<stop offset="1.0001" stopColor="#666666"/>
</linearGradient>
</defs>
</svg>
